<svg width="129" height="39" viewBox="0 0 129 39" fill="none" xmlns="http://www.w3.org/2000/svg">
<g clip-path="url(#clip0_1_3698)">
<path d="M49.2905 6.5935C47.5548 6.5935 46.5497 7.01227 45.536 7.97978V4.12708H41.5938V19.87H45.536V12.8491C45.536 11.0238 46.5353 10.2007 47.9822 10.2007C49.2443 10.2007 50.2724 10.9487 50.2724 12.5401V19.87H54.2147V11.9769C54.2176 8.50541 51.9446 6.5935 49.2905 6.5935Z" fill="white"/>
<path d="M68.5427 6.73254V19.8705H64.5109V18.6344C63.786 19.6076 62.4402 20.2372 60.6669 20.2372C57.9521 20.2372 55.6416 18.3455 55.6416 14.799V6.73254H59.6734V14.2214C59.6734 15.8502 60.7218 16.6127 62.0127 16.6127C63.4914 16.6127 64.5109 15.7723 64.5109 13.9066V6.73254H68.5427Z" fill="white"/>
<path d="M75.8495 15.167V10.5143H78.0242V6.73091H75.8495V4.51575H71.8206V5.99445C71.8206 6.40167 71.4913 6.73091 71.0841 6.73091H69.6689V10.5143H71.8206V15.167C71.8206 18.8435 73.3513 20.3944 78.6191 19.8717V16.2963C76.8458 16.4002 75.8495 16.2963 75.8495 15.167Z" fill="white"/>
<path d="M87.9161 10.5163V6.73286H85.1493V4.5177H81.1175V5.9964C81.1175 6.40362 80.7883 6.73286 80.381 6.73286H78.9688V10.5163H81.1175V15.169C81.1175 18.8455 82.6511 20.3964 87.9161 19.8737V16.2982C86.1428 16.4022 85.1493 16.2982 85.1493 15.169V10.5163H87.9161Z" fill="white"/>
<path d="M89.4463 4.51984V19.8729H93.4752V4.51984H89.4463Z" fill="white"/>
<path d="M101.975 16.503C103.029 16.503 103.93 16.1015 104.444 15.547L107.531 17.2828C106.272 18.9925 104.369 19.8734 101.926 19.8734C97.5271 19.8734 94.8008 16.9824 94.8008 13.2366C94.8008 9.49071 97.5791 6.59973 101.643 6.59973C105.397 6.59973 108.176 9.44161 108.176 13.2366C108.176 13.7651 108.124 14.2676 108.022 14.7441H98.8874C99.3784 16.0496 100.56 16.503 101.975 16.503ZM104.34 11.9254C103.927 10.4669 102.772 9.93836 101.614 9.93836C100.147 9.93836 99.1705 10.6431 98.8094 11.9254H104.34Z" fill="white"/>
<path d="M117.553 6.62861V10.4958C115.895 10.2329 113.539 11.1773 113.539 13.768L113.536 19.9167H109.521L109.524 6.59973H113.539V8.56074C114.073 6.80479 115.867 6.62572 117.553 6.62861Z" fill="white"/>
<path d="M30.5789 18.7502C30.1081 18.4267 29.724 18.0715 29.3976 17.6296C28.7189 16.8325 28.4532 16.0643 28.3926 15.3567L32.1731 14.5596C32.2308 15.091 32.4677 15.5646 32.8807 15.9459C33.3225 16.3589 33.854 16.5668 34.5327 16.5668C35.6532 16.5668 36.2453 15.917 36.2453 15.296C36.2453 14.6751 35.7716 14.2332 34.8272 14.0253L32.9673 13.6123C30.163 12.9913 28.7449 11.4578 28.7449 9.33214C28.7449 8.00362 29.2763 6.85127 30.3392 5.93575C31.4308 4.99135 32.7594 4.5177 34.3536 4.5177C36.6872 4.5177 38.3103 5.43322 39.194 6.52492C39.8438 7.29315 40.1384 8.02961 40.228 8.74008L36.5081 9.5372C36.3002 8.47438 35.5637 7.79568 34.3825 7.79568C33.4092 7.79568 32.7594 8.35597 32.7594 9.03467C32.7594 9.59496 33.1435 9.95019 33.9117 10.0975L35.9478 10.5394C38.8417 11.0997 40.407 12.7834 40.407 14.9986C40.407 16.2376 39.9045 17.4188 38.989 18.3343C38.0446 19.2498 36.4792 19.8708 34.5904 19.8708C32.9384 19.8737 31.4626 19.4 30.5789 18.7502Z" fill="white"/>
<path d="M120.081 19.0789C119.656 18.7872 119.31 18.4666 119.015 18.0681C118.403 17.349 118.163 16.6558 118.108 16.0175L121.516 15.2984C121.568 15.7778 121.782 16.2053 122.155 16.549C122.553 16.9215 123.033 17.1092 123.645 17.1092C124.656 17.1092 125.19 16.523 125.19 15.9627C125.19 15.4024 124.763 15.0038 123.911 14.819L122.233 14.4464C119.703 13.8861 118.423 12.5027 118.423 10.5851C118.423 9.3865 118.903 8.34679 119.861 7.52368C120.846 6.6717 122.045 6.24426 123.483 6.24426C125.586 6.24426 127.053 7.07025 127.85 8.05509C128.436 8.74823 128.702 9.41249 128.783 10.0536L125.427 10.7728C125.239 9.81394 124.575 9.20166 123.509 9.20166C122.631 9.20166 122.045 9.70708 122.045 10.3194C122.045 10.8248 122.391 11.1453 123.085 11.2782L124.921 11.6768C127.532 12.1822 128.942 13.7013 128.942 15.697C128.942 16.8147 128.488 17.8804 127.662 18.7064C126.81 19.5323 125.398 20.0897 123.694 20.0897C122.212 20.0897 120.881 19.6652 120.081 19.0789Z" fill="white"/>
<path d="M19.3584 21.4766C14.1252 25.5401 6.58732 24.5928 2.5209 19.3596C-1.54264 14.1264 -0.59535 6.58851 4.64075 2.52208C9.87396 -1.54145 17.4119 -0.594162 21.4783 4.63905C25.5418 9.87515 24.5917 17.4131 19.3584 21.4766Z" fill="white"/>
<path d="M18.0683 10.3826C17.1528 9.07723 15.5586 8.52849 14.0972 8.88661C13.7189 8.97903 13.3492 9.1321 13.0026 9.34871C12.9448 9.38337 12.8871 9.42091 12.8322 9.46134L10.0943 11.379C10.0943 11.3819 10.0943 11.3848 10.0914 11.3877C10.051 11.5379 9.96145 11.6765 9.8286 11.7776C9.82282 11.7834 9.81704 11.7863 9.80838 11.792C9.49647 12.0115 9.06903 11.9509 8.82932 11.6592C8.82354 11.6505 8.81777 11.6447 8.81199 11.6361C8.80621 11.6274 8.80044 11.6216 8.79466 11.613C8.78889 11.6043 8.78311 11.5985 8.77733 11.5899C8.77156 11.5812 8.76867 11.5725 8.76289 11.5639C8.57228 11.2404 8.65892 10.8187 8.97372 10.5992C9.11813 10.4982 9.28852 10.4577 9.45026 10.4693L14.0596 7.24041L13.973 3.39636L6.85387 8.3812C6.00477 8.97615 5.47625 9.8599 5.30874 10.8072C5.14123 11.7545 5.33473 12.7653 5.93257 13.6173C6.84809 14.9227 8.44231 15.4715 9.90369 15.1133C10.282 15.0209 10.6517 14.8678 10.9983 14.6512C11.056 14.6166 11.1138 14.579 11.1687 14.5386L13.9066 12.6209C13.9066 12.618 13.9095 12.6151 13.9095 12.6122C13.9499 12.4621 14.0394 12.3234 14.1723 12.2252C14.1781 12.2195 14.1867 12.2137 14.1925 12.2108C14.5044 11.9913 14.9318 12.052 15.1716 12.3437C15.1773 12.3523 15.1831 12.3581 15.1889 12.3668C15.1947 12.3754 15.2004 12.3812 15.2062 12.3899C15.212 12.3985 15.2178 12.4043 15.2235 12.413C15.2293 12.4216 15.2322 12.4303 15.238 12.439C15.4286 12.7624 15.342 13.1841 15.03 13.4036C14.8856 13.5047 14.7181 13.548 14.5535 13.5335L9.94123 16.7595L10.0279 20.6036L17.147 15.6187C17.9961 15.0238 18.5246 14.14 18.6921 13.1928C18.8596 12.2455 18.6661 11.2317 18.0683 10.3826Z" fill="#101211"/>
</g>
<path d="M52.0225 35H51.0752V27.8906H52.0225V35ZM54.9961 31.8555H51.8174V31.0938H54.9961V31.8555ZM55.4795 28.6572H51.8174V27.8906H55.4795V28.6572ZM62.0762 31.6748C62.0762 32.3844 61.959 32.9948 61.7246 33.5059C61.4902 34.0169 61.1598 34.4108 60.7334 34.6875C60.307 34.9609 59.804 35.0977 59.2246 35.0977C58.6647 35.0977 58.1683 34.9609 57.7354 34.6875C57.3024 34.4108 56.9639 34.0169 56.7197 33.5059C56.4756 32.9948 56.3535 32.3844 56.3535 31.6748V31.2207C56.3535 30.5111 56.474 29.9007 56.7148 29.3896C56.959 28.8753 57.2959 28.4814 57.7256 28.208C58.1585 27.9313 58.6549 27.793 59.2148 27.793C59.7943 27.793 60.2972 27.9313 60.7236 28.208C61.1533 28.4814 61.4854 28.8753 61.7197 29.3896C61.9574 29.9007 62.0762 30.5111 62.0762 31.2207V31.6748ZM61.1387 31.2109C61.1387 30.6445 61.0622 30.1676 60.9092 29.7803C60.7562 29.3896 60.5365 29.0934 60.25 28.8916C59.9635 28.6898 59.6185 28.5889 59.2148 28.5889C58.8275 28.5889 58.4889 28.6898 58.1992 28.8916C57.9128 29.0934 57.6898 29.3896 57.5303 29.7803C57.374 30.1676 57.2959 30.6445 57.2959 31.2109V31.6748C57.2959 32.2445 57.3757 32.7246 57.5352 33.1152C57.6947 33.5059 57.9193 33.8021 58.209 34.0039C58.4987 34.2057 58.8372 34.3066 59.2246 34.3066C59.6315 34.3066 59.9766 34.2057 60.2598 34.0039C60.5462 33.8021 60.7643 33.5059 60.9141 33.1152C61.0638 32.7246 61.1387 32.2445 61.1387 31.6748V31.2109ZM65.8408 27.8906C66.3747 27.8906 66.8271 27.972 67.1982 28.1348C67.5693 28.2975 67.8509 28.5384 68.043 28.8574C68.2383 29.1732 68.3359 29.5622 68.3359 30.0244C68.3359 30.3499 68.2692 30.6462 68.1357 30.9131C68.0055 31.18 67.8167 31.4079 67.5693 31.5967C67.3219 31.7855 67.0273 31.9255 66.6855 32.0166L66.4219 32.1191H64.2148L64.2051 31.3574H65.8652C66.2038 31.3574 66.4854 31.2972 66.71 31.1768C66.9346 31.0563 67.1022 30.8952 67.2129 30.6934C67.3268 30.4915 67.3838 30.2686 67.3838 30.0244C67.3838 29.611 67.2617 29.2806 67.0176 29.0332C66.7734 28.7826 66.3812 28.6572 65.8408 28.6572H64.4346V35H63.4873V27.8906H65.8408ZM65.9092 31.7773H66.9004L68.6484 34.9414V35H67.6328L65.9092 31.7773ZM72.8672 31.6699L72.8574 30.9229H74.4883C74.8919 30.9229 75.2174 30.8219 75.4648 30.6201C75.7122 30.4183 75.8359 30.1367 75.8359 29.7754C75.8359 29.3848 75.722 29.1016 75.4941 28.9258C75.2695 28.7467 74.9261 28.6572 74.4639 28.6572H73.0771V35H72.1299V27.8906H74.4639C75.1898 27.8906 75.7578 28.042 76.168 28.3447C76.5781 28.6442 76.7832 29.1243 76.7832 29.7852C76.7832 30.0781 76.7083 30.3434 76.5586 30.5811C76.4089 30.8154 76.1989 31.0075 75.9287 31.1572C75.6618 31.307 75.3509 31.403 74.9961 31.4453L74.6641 31.6699H72.8672ZM72.4912 35L73.0332 34.2383H74.6201C75.0661 34.2383 75.4111 34.1227 75.6553 33.8916C75.8994 33.6605 76.0215 33.3496 76.0215 32.959C76.0215 32.6953 75.9743 32.4674 75.8799 32.2754C75.7855 32.0801 75.639 31.9303 75.4404 31.8262C75.2419 31.722 74.9831 31.6699 74.6641 31.6699H73.3213L73.3311 30.9229H75.167L75.3672 31.1963C75.709 31.2256 75.9987 31.3216 76.2363 31.4844C76.474 31.6471 76.6546 31.8555 76.7783 32.1094C76.9053 32.3633 76.9688 32.6432 76.9688 32.9492C76.9688 33.6165 76.7539 34.126 76.3242 34.4775C75.8978 34.8258 75.3298 35 74.6201 35H72.4912ZM83.3701 27.8906V32.7002C83.3701 33.234 83.2497 33.6784 83.0088 34.0332C82.7712 34.388 82.4554 34.6549 82.0615 34.834C81.6709 35.0098 81.2461 35.0977 80.7871 35.0977C80.3053 35.0977 79.8691 35.0098 79.4785 34.834C79.0911 34.6549 78.7835 34.388 78.5557 34.0332C78.3311 33.6784 78.2188 33.234 78.2188 32.7002V27.8906H79.1562V32.7002C79.1562 33.0713 79.2246 33.3773 79.3613 33.6182C79.498 33.859 79.6885 34.0397 79.9326 34.1602C80.1768 34.2773 80.4616 34.3359 80.7871 34.3359C81.1159 34.3359 81.4023 34.2773 81.6465 34.1602C81.8906 34.0397 82.0794 33.859 82.2129 33.6182C82.3496 33.3773 82.418 33.0713 82.418 32.7002V27.8906H83.3701ZM88.6289 33.2031C88.6289 32.9785 88.5817 32.7881 88.4873 32.6318C88.3929 32.4756 88.2236 32.334 87.9795 32.207C87.7354 32.0801 87.3887 31.9515 86.9395 31.8213C86.5879 31.7204 86.2705 31.6064 85.9873 31.4795C85.7074 31.3493 85.4665 31.2012 85.2646 31.0352C85.0628 30.8691 84.9082 30.6787 84.8008 30.4639C84.6934 30.249 84.6396 30.0033 84.6396 29.7266C84.6396 29.3555 84.7389 29.0251 84.9375 28.7354C85.1393 28.4424 85.4209 28.2129 85.7822 28.0469C86.1436 27.8776 86.5667 27.793 87.0518 27.793C87.5889 27.793 88.0446 27.8955 88.4189 28.1006C88.7933 28.3024 89.0781 28.5677 89.2734 28.8965C89.4688 29.222 89.5664 29.5703 89.5664 29.9414H88.6143C88.6143 29.6745 88.5573 29.4368 88.4434 29.2285C88.3327 29.0202 88.1618 28.8574 87.9307 28.7402C87.6995 28.6198 87.4066 28.5596 87.0518 28.5596C86.7197 28.5596 86.4447 28.61 86.2266 28.7109C86.0117 28.8118 85.8522 28.9486 85.748 29.1211C85.6439 29.2936 85.5918 29.4906 85.5918 29.7119C85.5918 29.9105 85.6488 30.0879 85.7627 30.2441C85.8766 30.3971 86.0557 30.5355 86.2998 30.6592C86.5439 30.7829 86.8597 30.9001 87.2471 31.0107C87.7842 31.1605 88.2253 31.3346 88.5703 31.5332C88.9154 31.7318 89.1693 31.9661 89.332 32.2363C89.498 32.5065 89.5811 32.8255 89.5811 33.1934C89.5811 33.5775 89.4785 33.9128 89.2734 34.1992C89.0684 34.4857 88.7803 34.707 88.4092 34.8633C88.0381 35.0195 87.6019 35.0977 87.1006 35.0977C86.7718 35.0977 86.4479 35.0521 86.1289 34.9609C85.8132 34.8698 85.5251 34.7331 85.2646 34.5508C85.0075 34.3685 84.8008 34.1439 84.6445 33.877C84.4915 33.6068 84.415 33.2943 84.415 32.9395H85.3623C85.3623 33.1836 85.4095 33.3936 85.5039 33.5693C85.5983 33.7451 85.7269 33.89 85.8896 34.0039C86.0524 34.1178 86.238 34.2025 86.4463 34.2578C86.6546 34.3099 86.8727 34.3359 87.1006 34.3359C87.4294 34.3359 87.7061 34.2904 87.9307 34.1992C88.1585 34.1048 88.3311 33.973 88.4482 33.8037C88.5687 33.6344 88.6289 33.4342 88.6289 33.2031ZM91.7979 35H90.8506V27.8906H91.7979V35ZM98.9756 35H98.0234L94.4541 29.502V35H93.5068V27.8906H94.4541L98.0381 33.4033V27.8906H98.9756V35ZM105.162 35H101.407V34.2383H105.162V35ZM101.593 35H100.646V27.8906H101.593V35ZM104.664 31.709H101.407V30.9473H104.664V31.709ZM105.113 28.6572H101.407V27.8906H105.113V28.6572ZM110.113 33.2031C110.113 32.9785 110.066 32.7881 109.972 32.6318C109.877 32.4756 109.708 32.334 109.464 32.207C109.22 32.0801 108.873 31.9515 108.424 31.8213C108.072 31.7204 107.755 31.6064 107.472 31.4795C107.192 31.3493 106.951 31.2012 106.749 31.0352C106.547 30.8691 106.393 30.6787 106.285 30.4639C106.178 30.249 106.124 30.0033 106.124 29.7266C106.124 29.3555 106.223 29.0251 106.422 28.7354C106.624 28.4424 106.905 28.2129 107.267 28.0469C107.628 27.8776 108.051 27.793 108.536 27.793C109.073 27.793 109.529 27.8955 109.903 28.1006C110.278 28.3024 110.562 28.5677 110.758 28.8965C110.953 29.222 111.051 29.5703 111.051 29.9414H110.099C110.099 29.6745 110.042 29.4368 109.928 29.2285C109.817 29.0202 109.646 28.8574 109.415 28.7402C109.184 28.6198 108.891 28.5596 108.536 28.5596C108.204 28.5596 107.929 28.61 107.711 28.7109C107.496 28.8118 107.337 28.9486 107.232 29.1211C107.128 29.2936 107.076 29.4906 107.076 29.7119C107.076 29.9105 107.133 30.0879 107.247 30.2441C107.361 30.3971 107.54 30.5355 107.784 30.6592C108.028 30.7829 108.344 30.9001 108.731 31.0107C109.269 31.1605 109.71 31.3346 110.055 31.5332C110.4 31.7318 110.654 31.9661 110.816 32.2363C110.982 32.5065 111.065 32.8255 111.065 33.1934C111.065 33.5775 110.963 33.9128 110.758 34.1992C110.553 34.4857 110.265 34.707 109.894 34.8633C109.522 35.0195 109.086 35.0977 108.585 35.0977C108.256 35.0977 107.932 35.0521 107.613 34.9609C107.298 34.8698 107.009 34.7331 106.749 34.5508C106.492 34.3685 106.285 34.1439 106.129 33.877C105.976 33.6068 105.899 33.2943 105.899 32.9395H106.847C106.847 33.1836 106.894 33.3936 106.988 33.5693C107.083 33.7451 107.211 33.89 107.374 34.0039C107.537 34.1178 107.722 34.2025 107.931 34.2578C108.139 34.3099 108.357 34.3359 108.585 34.3359C108.914 34.3359 109.19 34.2904 109.415 34.1992C109.643 34.1048 109.815 33.973 109.933 33.8037C110.053 33.6344 110.113 33.4342 110.113 33.2031ZM116.051 33.2031C116.051 32.9785 116.004 32.7881 115.909 32.6318C115.815 32.4756 115.646 32.334 115.401 32.207C115.157 32.0801 114.811 31.9515 114.361 31.8213C114.01 31.7204 113.692 31.6064 113.409 31.4795C113.129 31.3493 112.888 31.2012 112.687 31.0352C112.485 30.8691 112.33 30.6787 112.223 30.4639C112.115 30.249 112.062 30.0033 112.062 29.7266C112.062 29.3555 112.161 29.0251 112.359 28.7354C112.561 28.4424 112.843 28.2129 113.204 28.0469C113.565 27.8776 113.989 27.793 114.474 27.793C115.011 27.793 115.466 27.8955 115.841 28.1006C116.215 28.3024 116.5 28.5677 116.695 28.8965C116.891 29.222 116.988 29.5703 116.988 29.9414H116.036C116.036 29.6745 115.979 29.4368 115.865 29.2285C115.755 29.0202 115.584 28.8574 115.353 28.7402C115.121 28.6198 114.828 28.5596 114.474 28.5596C114.142 28.5596 113.867 28.61 113.648 28.7109C113.434 28.8118 113.274 28.9486 113.17 29.1211C113.066 29.2936 113.014 29.4906 113.014 29.7119C113.014 29.9105 113.071 30.0879 113.185 30.2441C113.299 30.3971 113.478 30.5355 113.722 30.6592C113.966 30.7829 114.282 30.9001 114.669 31.0107C115.206 31.1605 115.647 31.3346 115.992 31.5332C116.337 31.7318 116.591 31.9661 116.754 32.2363C116.92 32.5065 117.003 32.8255 117.003 33.1934C117.003 33.5775 116.9 33.9128 116.695 34.1992C116.49 34.4857 116.202 34.707 115.831 34.8633C115.46 35.0195 115.024 35.0977 114.522 35.0977C114.194 35.0977 113.87 35.0521 113.551 34.9609C113.235 34.8698 112.947 34.7331 112.687 34.5508C112.429 34.3685 112.223 34.1439 112.066 33.877C111.913 33.6068 111.837 33.2943 111.837 32.9395H112.784C112.784 33.1836 112.831 33.3936 112.926 33.5693C113.02 33.7451 113.149 33.89 113.312 34.0039C113.474 34.1178 113.66 34.2025 113.868 34.2578C114.076 34.3099 114.295 34.3359 114.522 34.3359C114.851 34.3359 115.128 34.2904 115.353 34.1992C115.58 34.1048 115.753 33.973 115.87 33.8037C115.991 33.6344 116.051 33.4342 116.051 33.2031ZM122.721 35H118.966V34.2383H122.721V35ZM119.151 35H118.204V27.8906H119.151V35ZM122.223 31.709H118.966V30.9473H122.223V31.709ZM122.672 28.6572H118.966V27.8906H122.672V28.6572ZM127.672 33.2031C127.672 32.9785 127.625 32.7881 127.53 32.6318C127.436 32.4756 127.267 32.334 127.022 32.207C126.778 32.0801 126.432 31.9515 125.982 31.8213C125.631 31.7204 125.313 31.6064 125.03 31.4795C124.75 31.3493 124.509 31.2012 124.308 31.0352C124.106 30.8691 123.951 30.6787 123.844 30.4639C123.736 30.249 123.683 30.0033 123.683 29.7266C123.683 29.3555 123.782 29.0251 123.98 28.7354C124.182 28.4424 124.464 28.2129 124.825 28.0469C125.187 27.8776 125.61 27.793 126.095 27.793C126.632 27.793 127.088 27.8955 127.462 28.1006C127.836 28.3024 128.121 28.5677 128.316 28.8965C128.512 29.222 128.609 29.5703 128.609 29.9414H127.657C127.657 29.6745 127.6 29.4368 127.486 29.2285C127.376 29.0202 127.205 28.8574 126.974 28.7402C126.743 28.6198 126.45 28.5596 126.095 28.5596C125.763 28.5596 125.488 28.61 125.27 28.7109C125.055 28.8118 124.895 28.9486 124.791 29.1211C124.687 29.2936 124.635 29.4906 124.635 29.7119C124.635 29.9105 124.692 30.0879 124.806 30.2441C124.92 30.3971 125.099 30.5355 125.343 30.6592C125.587 30.7829 125.903 30.9001 126.29 31.0107C126.827 31.1605 127.268 31.3346 127.613 31.5332C127.958 31.7318 128.212 31.9661 128.375 32.2363C128.541 32.5065 128.624 32.8255 128.624 33.1934C128.624 33.5775 128.521 33.9128 128.316 34.1992C128.111 34.4857 127.823 34.707 127.452 34.8633C127.081 35.0195 126.645 35.0977 126.144 35.0977C125.815 35.0977 125.491 35.0521 125.172 34.9609C124.856 34.8698 124.568 34.7331 124.308 34.5508C124.05 34.3685 123.844 34.1439 123.688 33.877C123.535 33.6068 123.458 33.2943 123.458 32.9395H124.405C124.405 33.1836 124.452 33.3936 124.547 33.5693C124.641 33.7451 124.77 33.89 124.933 34.0039C125.095 34.1178 125.281 34.2025 125.489 34.2578C125.698 34.3099 125.916 34.3359 126.144 34.3359C126.472 34.3359 126.749 34.2904 126.974 34.1992C127.201 34.1048 127.374 33.973 127.491 33.8037C127.612 33.6344 127.672 33.4342 127.672 33.2031Z" fill="white"/>
<defs>
<clipPath id="clip0_1_3698">
<rect width="128.95" height="24" fill="white"/>
</clipPath>
</defs>
</svg>
