<svg width="20" height="20" viewBox="0 0 20 20" fill="none" xmlns="http://www.w3.org/2000/svg">
<path d="M7.66667 3.77797V3.00019C7.66667 2.79391 7.74861 2.59608 7.89447 2.45022C8.04033 2.30436 8.23816 2.22241 8.44444 2.22241H11.5556C11.7618 2.22241 11.9597 2.30436 12.1055 2.45022C12.2514 2.59608 12.3333 2.79391 12.3333 3.00019V3.77797H15.4444C15.857 3.77797 16.2527 3.94186 16.5444 4.23358C16.8361 4.5253 17 4.92096 17 5.33352V6.1113C17 6.52386 16.8361 6.91952 16.5444 7.21125C16.2527 7.50297 15.857 7.66686 15.4444 7.66686H15.341L14.8121 15.6002C14.7727 16.1907 14.5102 16.7442 14.078 17.1486C13.6458 17.5529 13.0761 17.7779 12.4842 17.778H7.53133C6.93997 17.778 6.37067 17.5534 5.93853 17.1497C5.50639 16.746 5.24366 16.1933 5.20344 15.6033L4.66211 7.66686H4.55556C4.143 7.66686 3.74733 7.50297 3.45561 7.21125C3.16389 6.91952 3 6.52386 3 6.1113V5.33352C3 4.92096 3.16389 4.5253 3.45561 4.23358C3.74733 3.94186 4.143 3.77797 4.55556 3.77797H7.66667ZM15.4444 5.33352H4.55556V6.1113H15.4444V5.33352ZM6.22078 7.66686L6.75511 15.4975C6.76852 15.6942 6.85613 15.8785 7.00023 16.0131C7.14434 16.1477 7.33417 16.2225 7.53133 16.2224H12.4842C12.6816 16.2224 12.8717 16.1474 13.0158 16.0125C13.16 15.8776 13.2474 15.693 13.2604 15.496L13.7816 7.66686H6.22156H6.22078ZM8.44444 8.44463C8.65072 8.44463 8.84855 8.52658 8.99442 8.67244C9.14028 8.8183 9.22222 9.01613 9.22222 9.22241V14.6669C9.22222 14.8731 9.14028 15.071 8.99442 15.2168C8.84855 15.3627 8.65072 15.4446 8.44444 15.4446C8.23816 15.4446 8.04033 15.3627 7.89447 15.2168C7.74861 15.071 7.66667 14.8731 7.66667 14.6669V9.22241C7.66667 9.01613 7.74861 8.8183 7.89447 8.67244C8.04033 8.52658 8.23816 8.44463 8.44444 8.44463ZM11.5556 8.44463C11.7618 8.44463 11.9597 8.52658 12.1055 8.67244C12.2514 8.8183 12.3333 9.01613 12.3333 9.22241V14.6669C12.3333 14.8731 12.2514 15.071 12.1055 15.2168C11.9597 15.3627 11.7618 15.4446 11.5556 15.4446C11.3493 15.4446 11.1514 15.3627 11.0056 15.2168C10.8597 15.071 10.7778 14.8731 10.7778 14.6669V9.22241C10.7778 9.01613 10.8597 8.8183 11.0056 8.67244C11.1514 8.52658 11.3493 8.44463 11.5556 8.44463Z" fill="#D92D20"/>
</svg>
